# xmcd
#
# Track frame offsets:
#	150
#	13782
#	27177
#	40852
#	57555
#	72460
#	88805
#	103317
#	123610
#	138195
#	153640
#	164440
#
# Disc length: 2360
#
# Revision: 1
# Processed by: cddbd v1.5.1PL0 Copyright (c) Steve Scherf et al.
# Submitted via: CDex 1.40Beta9
# Normalized: r0:DSETVAR1
#
DISCID=ad09360c
DTITLE=Various Artist - Asphalt Cowboys und ihre schönsten Country-und Trucker-Songs
DYEAR=1993
DGENRE=Country
TTITLE0=Mitglied im Country Club - George and Lucky Riders
TTITLE1=Ist es wirklich wahr - Hanna and Daana
TTITLE2=Tanze mit mir - Truck Riders
TTITLE3=Das soll alles jetzt vorbei sein - Linda Feller
TTITLE4=Hübsche Mädchen, guter Wein - George and Lucky Riders
TTITLE5=Country-Sommer - Greyhounds
TTITLE6=Im Stau - Dave Dudley
TTITLE7=Mein Mofa - Rubber Duck
TTITLE8=Trucker - Dagmar-the Lady of Country
TTITLE9=Wieder mal auf Tour - Tex Haper
TTITLE10=Good old Germany - Canyon
TTITLE11=Komm fahr mit mir - Country Roads
EXTD=YEAR: 1993 ID3G: 2
EXTT0=
EXTT1=
EXTT2=
EXTT3=
EXTT4=
EXTT5=
EXTT6=
EXTT7=
EXTT8=
EXTT9=
EXTT10=
EXTT11=
PLAYORDER=
